<svg width="62" height="62" viewBox="0 0 62 62" fill="none" xmlns="http://www.w3.org/2000/svg">
<circle cx="31" cy="31" r="28" fill="#EEC500" stroke="#FFFF00" stroke-width="6"/>
<path d="M26.7969 39H22.8359V26.3906L18.9453 27.5273V24.5273L26.4336 21.9375H26.7969V39ZM43.7891 32.0273C43.7891 34.332 43.2695 36.1094 42.2305 37.3594C41.1992 38.6094 39.7422 39.2344 37.8594 39.2344C35.9609 39.2344 34.4922 38.6055 33.4531 37.3477C32.4141 36.0898 31.8945 34.3164 31.8945 32.0273V28.9102C31.8945 26.6055 32.4102 24.8281 33.4414 23.5781C34.4805 22.3281 35.9453 21.7031 37.8359 21.7031C39.7266 21.7031 41.1914 22.332 42.2305 23.5898C43.2695 24.8477 43.7891 26.625 43.7891 28.9219V32.0273ZM39.8398 28.4062C39.8398 27.1797 39.6797 26.2656 39.3594 25.6641C39.0391 25.0547 38.5312 24.75 37.8359 24.75C37.1562 24.75 36.6602 25.0312 36.3477 25.5938C36.043 26.1562 35.8789 27.0078 35.8555 28.1484V32.5078C35.8555 33.7812 36.0156 34.7148 36.3359 35.3086C36.6562 35.8945 37.1641 36.1875 37.8594 36.1875C38.5312 36.1875 39.0273 35.9023 39.3477 35.332C39.668 34.7539 39.832 33.8516 39.8398 32.625V28.4062Z" fill="black"/>
</svg>
