<?xml version="1.0" encoding="utf-8"?>
<!DOCTYPE svg PUBLIC "-//W3C//DTD SVG 1.1//EN" "http://www.w3.org/Graphics/SVG/1.1/DTD/svg11.dtd">
<svg version="1.1" xmlns="http://www.w3.org/2000/svg" xmlns:xlink="http://www.w3.org/1999/xlink" x="0px" y="0px"
	 width="320px" height="320px" viewBox="0 0 32 32" enable-background="new 0 0 32 32"
	 xml:space="preserve">
<g id="Black">
	<polygon fill="#555" points="13,1 19,1 19,2 20,2 20,3 21,3 21,4 22,4 22,10
		21,10 21,11 20,11 20,12 19,12 19,13 18,13 18,16 20,16 20,15 21,15 21,14
		22,14 22,13 28,13 28,14 29,14 29,15 30,15 30,16 31,16 31,22 30,22 30,23
		29,23 29,24 28,24 28,25 22,25 22,24 21,24 21,23 20,23 20,22 18,22 18,30
		19,30 19,31 13,31 13,30 14,30 14,22 12,22 12,23 11,23 11,24 10,24 10,25
		4,25 4,24 3,24 3,23 2,23 2,22 1,22 1,16 2,16 2,15 3,15 3,14 4,14 4,13
		10,13 10,14 11,14 11,15 12,15 12,16 14,16 14,13 13,13 13,12 12,12 12,11
		11,11 11,10 10,10 10,4 11,4 11,3 12,3 12,2 13,2" />
</g> 
<g id="Border">
	<g>
		<rect x="13" y="0" fill="#000" width="6" height="1"/>

		<rect x="12" y="1" fill="#000" width="1" height="1"/>
		<rect x="11" y="2" fill="#000" width="1" height="1"/>
		<rect x="10" y="3" fill="#000" width="1" height="1"/>
		<rect x="9" y="4" fill="#000" width="1" height="6"/>
		<rect x="10" y="10" fill="#000" width="1" height="1"/>
		<rect x="11" y="11" fill="#000" width="1" height="1"/>
		<rect x="12" y="12" fill="#000" width="1" height="1"/>
		<rect x="13" y="13" fill="#000" width="1" height="1"/>
		<rect x="14" y="14" fill="#000" width="1" height="3"/>
		<rect x="13" y="16" fill="#000" width="1" height="1"/>
		<rect x="12" y="15" fill="#000" width="1" height="1"/>
		<rect x="11" y="14" fill="#000" width="1" height="1"/>
		<rect x="10" y="13" fill="#000" width="1" height="1"/>
		<rect x="4" y="12" fill="#000" width="6" height="1"/>
		<rect x="3" y="13" fill="#000" width="1" height="1"/>
		<rect x="2" y="14" fill="#000" width="1" height="1"/>
		<rect x="1" y="15" fill="#000" width="1" height="1"/>
		<rect x="0" y="16" fill="#000" width="1" height="6"/>
		<rect x="1" y="22" fill="#000" width="1" height="1"/>
		<rect x="2" y="23" fill="#000" width="1" height="1"/>
		<rect x="3" y="24" fill="#000" width="1" height="1"/>
		<rect x="4" y="25" fill="#000" width="6" height="1"/>
		<rect x="10" y="24" fill="#000" width="1" height="1"/>
		<rect x="11" y="23" fill="#000" width="1" height="1"/>
		<rect x="12" y="22" fill="#000" width="1" height="1"/>
		<rect x="13" y="21" fill="#000" width="2" height="1"/>
		<rect x="14" y="22" fill="#000" width="1" height="7"/>
		<rect x="13" y="29" fill="#000" width="1" height="1"/>
		<rect x="9" y="30" fill="#000" width="4" height="1"/>

		<rect x="6" y="31" fill="#000" width="20" height="1"/>

		<rect x="19" y="1" fill="#000" width="1" height="1"/>
		<rect x="20" y="2" fill="#000" width="1" height="1"/>
		<rect x="21" y="3" fill="#000" width="1" height="1"/>
		<rect x="22" y="4" fill="#000" width="1" height="6"/>
		<rect x="21" y="10" fill="#000" width="1" height="1"/>
		<rect x="20" y="11" fill="#000" width="1" height="1"/>
		<rect x="19" y="12" fill="#000" width="1" height="1"/>
		<rect x="18" y="13" fill="#000" width="1" height="1"/>
		<rect x="17" y="14" fill="#000" width="1" height="3"/>
		<rect x="18" y="16" fill="#000" width="1" height="1"/>
		<rect x="19" y="15" fill="#000" width="1" height="1"/>
		<rect x="20" y="14" fill="#000" width="1" height="1"/>
		<rect x="21" y="13" fill="#000" width="1" height="1"/>
		<rect x="22" y="12" fill="#000" width="6" height="1"/>
		<rect x="28" y="13" fill="#000" width="1" height="1"/>
		<rect x="29" y="14" fill="#000" width="1" height="1"/>
		<rect x="30" y="15" fill="#000" width="1" height="1"/>
		<rect x="31" y="16" fill="#000" width="1" height="6"/>
		<rect x="30" y="22" fill="#000" width="1" height="1"/>
		<rect x="29" y="23" fill="#000" width="1" height="1"/>
		<rect x="28" y="24" fill="#000" width="1" height="1"/>
		<rect x="22" y="25" fill="#000" width="6" height="1"/>
		<rect x="21" y="24" fill="#000" width="1" height="1"/>
		<rect x="20" y="23" fill="#000" width="1" height="1"/>
		<rect x="19" y="22" fill="#000" width="1" height="1"/>
		<rect x="17" y="21" fill="#000" width="2" height="1"/>
		<rect x="17" y="22" fill="#000" width="1" height="7"/>
		<rect x="18" y="29" fill="#000" width="1" height="1"/>
		<rect x="19" y="30" fill="#000" width="4" height="1"/>
	</g>
</g> 
<g id="Shadow">
	<g>
		<rect x="13" y="1" fill="#333" width="6" height="1"/>

		<rect x="12" y="2" fill="#333" width="1" height="1"/>
		<rect x="11" y="3" fill="#333" width="1" height="1"/>
		<rect x="10" y="4" fill="#333" width="1" height="6"/>
		<rect x="11" y="10" fill="#333" width="1" height="1"/>
		<rect x="12" y="11" fill="#333" width="1" height="1"/>
		<rect x="13" y="12" fill="#333" width="1" height="1"/>
		<rect x="14" y="13" fill="#333" width="1" height="1"/>
		<rect x="12" y="16" fill="#333" width="1" height="1"/>
		<rect x="11" y="15" fill="#333" width="1" height="1"/>
		<rect x="10" y="14" fill="#333" width="1" height="1"/>
		<rect x="4" y="13" fill="#333" width="6" height="1"/>
		<rect x="3" y="14" fill="#333" width="1" height="1"/>
		<rect x="2" y="15" fill="#333" width="1" height="1"/>
		<rect x="1" y="16" fill="#333" width="1" height="6"/>
		<rect x="2" y="22" fill="#333" width="1" height="1"/>
		<rect x="3" y="23" fill="#333" width="1" height="1"/>
		<rect x="4" y="24" fill="#333" width="6" height="1"/>
		<rect x="10" y="23" fill="#333" width="1" height="1"/>
		<rect x="11" y="22" fill="#333" width="1" height="1"/>
		<rect x="12" y="21" fill="#333" width="1" height="1"/>
		<rect x="14" y="29" fill="#333" width="1" height="1"/>
		<rect x="13" y="30" fill="#333" width="1" height="1"/>

		<rect x="19" y="2" fill="#333" width="1" height="1"/>
		<rect x="20" y="3" fill="#333" width="1" height="1"/>
		<rect x="21" y="4" fill="#333" width="1" height="6"/>
		<rect x="20" y="10" fill="#333" width="1" height="1"/>
		<rect x="19" y="11" fill="#333" width="1" height="1"/>
		<rect x="18" y="12" fill="#333" width="1" height="1"/>
		<rect x="17" y="13" fill="#333" width="1" height="1"/>
		<rect x="19" y="16" fill="#333" width="1" height="1"/>
		<rect x="20" y="15" fill="#333" width="1" height="1"/>
		<rect x="21" y="14" fill="#333" width="1" height="1"/>
		<rect x="22" y="13" fill="#333" width="6" height="1"/>
		<rect x="28" y="14" fill="#333" width="1" height="1"/>
		<rect x="29" y="15" fill="#333" width="1" height="1"/>
		<rect x="30" y="16" fill="#333" width="1" height="6"/>
		<rect x="29" y="22" fill="#333" width="1" height="1"/>
		<rect x="28" y="23" fill="#333" width="1" height="1"/>
		<rect x="22" y="24" fill="#333" width="6" height="1"/>
		<rect x="21" y="23" fill="#333" width="1" height="1"/>
		<rect x="20" y="22" fill="#333" width="1" height="1"/>
		<rect x="19" y="21" fill="#333" width="1" height="1"/>
		<rect x="17" y="29" fill="#333" width="1" height="1"/>
		<rect x="18" y="30" fill="#333" width="1" height="1"/>
	</g>
</g>
<g id="Highlight">
	<g>
		<rect x="14" y="3" fill="#AAA" width="2" height="1"/>
		<rect x="13" y="4" fill="#AAA" width="1" height="1"/>
		<rect x="12" y="5" fill="#AAA" width="1" height="2"/>

		<rect x="5" y="15" fill="#AAA" width="2" height="1"/>
		<rect x="4" y="16" fill="#AAA" width="1" height="1"/>
		<rect x="3" y="17" fill="#AAA" width="1" height="2"/>

		<rect x="23" y="15" fill="#AAA" width="2" height="1"/>
		<rect x="22" y="16" fill="#AAA" width="1" height="1"/>
		<rect x="21" y="17" fill="#AAA" width="1" height="2"/>
	</g>
</g>
</svg>
