<?xml version="1.0" encoding="utf-8"?>
<!DOCTYPE svg PUBLIC "-//W3C//DTD SVG 1.1//EN" "http://www.w3.org/Graphics/SVG/1.1/DTD/svg11.dtd">
<svg version="1.1" xmlns="http://www.w3.org/2000/svg" xmlns:xlink="http://www.w3.org/1999/xlink" x="0px" y="0px"
	 width="320px" height="320px" viewBox="0 0 220 320" enable-background="new 0 0 220 320"
	 xml:space="preserve">
<g id="Red">
	<polygon fill="#F00" points="100,0 120,0 120,10 130,10 130,30 140,30 140,40 150,40 150,60 160,60 160,70
		170,70 170,90 180,90 180,100 190,100 190,120 200,120 200,130 210,130 210,150 220,150 220,170 210,170
		210,190 200,190 200,200 190,200 190,220 180,220 180,230 170,230 170,250 160,250 160,260 150,260 150,280 140,280
		140,290 130,290 130,310 120,310 120,320 100,320 100,310 90,310 90,290 80,290 80,280 70,280 70,260
		60,260 60,250 50,250 50,230 40,230 40,220 30,220 30,200 20,200 20,190 10,190 10,170 0,170 0,150
		10,150 10,130 20,130 20,120 30,120 30,100 40,100 40,90 50,90 50,70 60,70 60,60 70,60 70,40 80,40 80,30 90,30 90,10 100,10" />
</g> 
<g id="Border">
	<g>
		<rect x="100" fill="#000" width="20" height="10"/>
		<rect x="90" y="10" fill="#000" width="10" height="20"/>
		<rect x="120" y="10" fill="#000" width="10" height="20"/>
		<rect x="80" y="30" fill="#000" width="10" height="10"/>
		<rect x="130" y="30" fill="#000" width="10" height="10"/>
		<rect x="70" y="40" fill="#000" width="10" height="20"/>
		<rect x="140" y="40" fill="#000" width="10" height="20"/>
		<rect x="60" y="60" fill="#000" width="10" height="10"/>
		<rect x="150" y="60" fill="#000" width="10" height="10"/>
		<rect x="50" y="70" fill="#000" width="10" height="20"/>
		<rect x="160" y="70" fill="#000" width="10" height="20"/>
		<rect x="40" y="90" fill="#000" width="10" height="10"/>
		<rect x="170" y="90" fill="#000" width="10" height="10"/>
		<rect x="30" y="100" fill="#000" width="10" height="20"/>
		<rect x="180" y="100" fill="#000" width="10" height="20"/>
		<rect x="20" y="120" fill="#000" width="10" height="10"/>
		<rect x="190" y="120" fill="#000" width="10" height="10"/>
		<rect x="10" y="130" fill="#000" width="10" height="20"/>
		<rect x="200" y="130" fill="#000" width="10" height="20"/>
		<rect y="150" fill="#000" width="10" height="20"/>
		<rect x="210" y="150" fill="#000" width="10" height="20"/>
		<rect x="10" y="170" fill="#000" width="10" height="20"/>
		<rect x="200" y="170" fill="#000" width="10" height="20"/>
		<rect x="20" y="190" fill="#000" width="10" height="10"/>
		<rect x="190" y="190" fill="#000" width="10" height="10"/>
		<rect x="30" y="200" fill="#000" width="10" height="20"/>
		<rect x="180" y="200" fill="#000" width="10" height="20"/>
		<rect x="40" y="220" fill="#000" width="10" height="10"/>
		<rect x="170" y="220" fill="#000" width="10" height="10"/>
		<rect x="50" y="230" fill="#000" width="10" height="20"/>
		<rect x="160" y="230" fill="#000" width="10" height="20"/>
		<rect x="60" y="250" fill="#000" width="10" height="10"/>
		<rect x="150" y="250" fill="#000" width="10" height="10"/>
		<rect x="70" y="260" fill="#000" width="10" height="20"/>
		<rect x="140" y="260" fill="#000" width="10" height="20"/>
		<rect x="80" y="280" fill="#000" width="10" height="10"/>
		<rect x="130" y="280" fill="#000" width="10" height="10"/>
		<rect x="90" y="290" fill="#000" width="10" height="20"/>
		<rect x="120" y="290" fill="#000" width="10" height="20"/>
		<rect x="100" y="310" fill="#000" width="20" height="10"/>
	</g>
</g> 
<g id="Shadow">
	<g>
		<rect x="100" y="10" fill="#991636" width="20" height="10"/>
		<rect x="100" y="300" fill="#991636" width="20" height="10"/>
		<rect x="120" y="30" fill="#991636" width="10" height="10"/>
		<rect x="120" y="280" fill="#991636" width="10" height="10"/>
		<rect x="90" y="30" fill="#991636" width="10" height="10"/>
		<rect x="90" y="280" fill="#991636" width="10" height="10"/>
		<rect x="80" y="40" fill="#991636" width="10" height="20"/>
		<rect x="80" y="260" fill="#991636" width="10" height="20"/>
		<rect x="70" y="60" fill="#991636" width="10" height="10"/>
		<rect x="70" y="250" fill="#991636" width="10" height="10"/>
		<rect x="150" y="70" fill="#991636" width="10" height="20"/>
		<rect x="150" y="230" fill="#991636" width="10" height="20"/>
		<rect x="160" y="90" fill="#991636" width="10" height="10"/>
		<rect x="160" y="220" fill="#991636" width="10" height="10"/>
		<rect x="50" y="90" fill="#991636" width="10" height="10"/>
		<rect x="50" y="220" fill="#991636" width="10" height="10"/>
		<rect x="40" y="100" fill="#991636" width="10" height="20"/>
		<rect x="40" y="200" fill="#991636" width="10" height="20"/>
		<rect x="170" y="100" fill="#991636" width="10" height="20"/>
		<rect x="170" y="200" fill="#991636" width="10" height="20"/>
		<rect x="180" y="120" fill="#991636" width="10" height="10"/>
		<rect x="180" y="190" fill="#991636" width="10" height="10"/>
		<rect x="30" y="120" fill="#991636" width="10" height="10"/>
		<rect x="30" y="190" fill="#991636" width="10" height="10"/>
		<rect x="20" y="130" fill="#991636" width="10" height="20"/>
		<rect x="20" y="170" fill="#991636" width="10" height="20"/>
		<rect x="190" y="130" fill="#991636" width="10" height="20"/>
		<rect x="190" y="170" fill="#991636" width="10" height="20"/>
		<rect x="200" y="150" fill="#991636" width="10" height="20"/>
		<rect x="10" y="150" fill="#991636" width="10" height="20"/>
		<rect x="60" y="70" fill="#991636" width="10" height="20"/>
		<rect x="60" y="230" fill="#991636" width="10" height="20"/>
		<rect x="140" y="60" fill="#991636" width="10" height="10"/>
		<rect x="140" y="250" fill="#991636" width="10" height="10"/>
		<rect x="130" y="40" fill="#991636" width="10" height="20"/>
		<rect x="130" y="260" fill="#991636" width="10" height="20"/>
	</g>
</g>
<g id="Highlight">
	<g>
		<rect x="110" y="50" fill="#F299C1" width="10" height="10"/>
		<rect x="100" y="50" fill="#F299C1" width="10" height="20"/>
		<rect x="90" y="70" fill="#F299C1" width="10" height="10"/>
		<rect x="80" y="80" fill="#F299C1" width="10" height="20"/>
		<rect x="70" y="100" fill="#F299C1" width="10" height="10"/>
		<rect x="60" y="110" fill="#F299C1" width="10" height="20"/>
		<rect x="50" y="130" fill="#F299C1" width="10" height="10"/>
		<rect x="40" y="140" fill="#F299C1" width="10" height="40"/>
		<rect x="50" y="180" fill="#F299C1" width="10" height="10"/>
		<rect x="60" y="190" fill="#F299C1" width="10" height="20"/>
	</g>
</g>
</svg>
