<?xml version="1.0" encoding="utf-8"?>
<!DOCTYPE svg PUBLIC "-//W3C//DTD SVG 1.1//EN" "http://www.w3.org/Graphics/SVG/1.1/DTD/svg11.dtd">
<svg version="1.1" xmlns="http://www.w3.org/2000/svg" xmlns:xlink="http://www.w3.org/1999/xlink" x="0px" y="0px"
	 width="374.174px" height="544.252px" viewBox="0 0 374.174 544.252" enable-background="new 0 0 374.174 544.252"
	 xml:space="preserve">
<g id="Red">
	<polygon fill="#F00" points="159.954,22.677 159.954,61.438 144.621,61.438 144.621,88.104 127.288,88.104 127.288,110.104 
		110.621,110.104 110.621,138.104 92.621,138.104 92.621,161.438 75.954,161.438 75.954,188.104 61.288,188.104 61.288,217.438 
		41.288,217.438 41.288,238.11 31.288,238.11 31.288,310.771 46.621,310.771 46.621,332.104 57.288,332.104 57.288,356.771 
		75.954,356.771 75.954,383.438 92.621,383.438 92.621,410.104 111.954,410.104 111.954,430.104 128.621,430.104 128.621,464.771 
		143.954,464.771 143.954,486.104 159.954,486.104 159.954,517.438 210.621,517.438 210.621,488.104 231.287,488.104 
		231.287,458.104 249.287,458.104 249.287,436.104 263.287,436.104 263.287,405.438 279.954,405.438 279.954,388.104 
		298.621,388.104 298.621,353.438 313.287,353.438 313.287,334.771 329.954,334.771 329.954,311.438 348.621,311.438 
		348.621,233.438 333.954,233.438 333.954,212.771 314.621,212.771 314.621,182.771 297.954,182.771 297.954,160.771 
		281.287,160.771 281.287,132.771 263.287,132.771 263.287,110.771 247.287,110.771 247.287,80.771 229.954,80.771 229.954,59.438 
		215.954,59.438 215.954,22.677 	"/>
</g>
<g id="Border">
	<g>
		<rect x="170.079" fill="#000" width="34.016" height="17.008"/>
		<rect x="153.071" y="17.008" fill="#000" width="17.008" height="34.016"/>
		<rect x="204.095" y="17.008" fill="#000" width="17.008" height="34.016"/>
		<rect x="136.063" y="51.023" fill="#000" width="17.008" height="17.008"/>
		<rect x="136.063" y="51.023" fill="#000" width="17.008" height="17.008"/>
		<rect x="221.103" y="51.023" fill="#000" width="17.008" height="17.008"/>
		<rect x="119.055" y="68.031" fill="#000" width="17.008" height="34.016"/>
		<rect x="238.11" y="68.031" fill="#000" width="17.008" height="34.016"/>
		<rect x="102.047" y="102.047" fill="#000" width="17.008" height="17.008"/>
		<rect x="255.118" y="102.047" fill="#000" width="17.008" height="17.008"/>
		<rect x="85.04" y="119.055" fill="#000" width="17.008" height="34.016"/>
		<rect x="272.126" y="119.055" fill="#000" width="17.009" height="34.016"/>
		<rect x="68.032" y="153.071" fill="#000" width="17.008" height="17.008"/>
		<rect x="289.134" y="153.071" fill="#000" width="17.009" height="17.008"/>
		<rect x="51.023" y="170.079" fill="#000" width="17.008" height="34.016"/>
		<rect x="306.142" y="170.079" fill="#000" width="17.009" height="34.016"/>
		<rect x="34.016" y="204.094" fill="#000" width="17.008" height="17.008"/>
		<rect x="323.149" y="204.094" fill="#000" width="17.009" height="17.008"/>
		<rect x="17.008" y="221.102" fill="#000" width="17.008" height="34.016"/>
		<rect x="340.157" y="221.102" fill="#000" width="17.009" height="34.016"/>
		<rect y="255.118" fill="#000" width="17.008" height="34.016"/>
		<rect x="357.165" y="255.118" fill="#000" width="17.009" height="34.016"/>
		<rect x="17.008" y="289.134" fill="#000" width="17.008" height="34.016"/>
		<rect x="340.157" y="289.134" fill="#000" width="17.009" height="34.016"/>
		<rect x="34.016" y="323.149" fill="#000" width="17.008" height="17.008"/>
		<rect x="323.149" y="323.149" fill="#000" width="17.009" height="17.008"/>
		<rect x="51.023" y="340.157" fill="#000" width="17.008" height="34.016"/>
		<rect x="306.142" y="340.157" fill="#000" width="17.009" height="34.016"/>
		<rect x="68.032" y="374.173" fill="#000" width="17.008" height="17.008"/>
		<rect x="289.134" y="374.173" fill="#000" width="17.009" height="17.008"/>
		<rect x="85.04" y="391.181" fill="#000" width="17.008" height="34.016"/>
		<rect x="272.126" y="391.181" fill="#000" width="17.009" height="34.016"/>
		<rect x="102.047" y="425.196" fill="#000" width="17.008" height="17.008"/>
		<rect x="255.118" y="425.196" fill="#000" width="17.008" height="17.008"/>
		<rect x="119.055" y="442.205" fill="#000" width="17.008" height="34.016"/>
		<rect x="238.11" y="442.205" fill="#000" width="17.008" height="34.016"/>
		<rect x="136.063" y="476.221" fill="#000" width="17.008" height="17.008"/>
		<rect x="221.103" y="476.221" fill="#000" width="17.008" height="17.008"/>
		<rect x="153.071" y="493.229" fill="#000" width="17.008" height="34.016"/>
		<rect x="204.095" y="493.229" fill="#000" width="17.008" height="34.016"/>
		<rect x="170.079" y="527.244" fill="#000" width="34.016" height="17.008"/>
	</g>
</g>
<g id="Shadow">
	<g>
		<rect x="170.079" y="17.007" fill="#991636" width="34.016" height="17.008"/>
		<rect x="170.079" y="510.236" fill="#991636" width="34.016" height="17.008"/>
		<rect x="204.095" y="51.023" fill="#991636" width="17.008" height="17.008"/>
		<rect x="204.095" y="476.221" fill="#991636" width="17.008" height="17.008"/>
		<rect x="153.071" y="51.023" fill="#991636" width="17.008" height="17.008"/>
		<rect x="153.071" y="476.221" fill="#991636" width="17.008" height="17.008"/>
		<rect x="136.063" y="68.031" fill="#991636" width="17.008" height="34.016"/>
		<rect x="136.063" y="442.205" fill="#991636" width="17.008" height="34.016"/>
		<rect x="119.055" y="102.047" fill="#991636" width="17.008" height="17.008"/>
		<rect x="119.055" y="425.196" fill="#991636" width="17.008" height="17.008"/>
		<rect x="255.119" y="119.054" fill="#991636" width="17.011" height="34.015"/>
		<rect x="255.119" y="391.181" fill="#991636" width="17.008" height="34.015"/>
		<rect x="272.126" y="153.071" fill="#991636" width="17.011" height="17.008"/>
		<rect x="272.126" y="374.173" fill="#991636" width="17.008" height="17.008"/>
		<rect x="85.04" y="153.071" fill="#991636" width="17.008" height="17.008"/>
		<rect x="85.04" y="374.173" fill="#991636" width="17.008" height="17.008"/>
		<rect x="68.032" y="170.079" fill="#991636" width="17.008" height="34.016"/>
		<rect x="68.032" y="340.157" fill="#991636" width="17.008" height="34.016"/>
		<rect x="289.134" y="170.079" fill="#991636" width="17.01" height="34.016"/>
		<rect x="289.134" y="340.157" fill="#991636" width="17.008" height="34.016"/>
		<rect x="306.142" y="204.094" fill="#991636" width="17.008" height="17.008"/>
		<rect x="306.142" y="323.149" fill="#991636" width="17.008" height="17.008"/>
		<rect x="51.023" y="204.094" fill="#991636" width="17.007" height="17.008"/>
		<rect x="51.023" y="323.149" fill="#991636" width="17.007" height="17.01"/>
		<rect x="34.016" y="221.102" fill="#991636" width="17.007" height="34.016"/>
		<rect x="34.016" y="289.134" fill="#991636" width="17.007" height="34.019"/>
		<rect x="323.149" y="221.102" fill="#991636" width="17.008" height="34.016"/>
		<rect x="323.149" y="289.133" fill="#991636" width="17.008" height="34.016"/>
		<rect x="340.157" y="255.118" fill="#991636" width="17.008" height="34.016"/>
		<rect x="17.008" y="255.118" fill="#991636" width="17.007" height="34.016"/>
		<rect x="102.047" y="119.054" fill="#991636" width="17.011" height="34.015"/>
		<rect x="102.047" y="391.181" fill="#991636" width="17.011" height="34.015"/>
		<rect x="238.109" y="102.047" fill="#991636" width="17.011" height="17.008"/>
		<rect x="238.109" y="425.196" fill="#991636" width="17.008" height="17.008"/>
		<rect x="221.103" y="68.031" fill="#991636" width="17.008" height="34.016"/>
		<rect x="221.103" y="442.205" fill="#991636" width="17.008" height="34.016"/>
	</g>
</g>
<g id="Highlight">
	<g>
		<rect x="187.086" y="85.039" fill="#F299C1" width="17.008" height="17.008"/>
		<rect x="170.079" y="85.039" fill="#F299C1" width="17.008" height="34.016"/>
		<rect x="153.071" y="119.055" fill="#F299C1" width="17.008" height="17.008"/>
		<rect x="136.063" y="136.063" fill="#F299C1" width="17.008" height="34.016"/>
		<rect x="119.055" y="170.079" fill="#F299C1" width="17.008" height="17.008"/>
		<rect x="102.047" y="187.086" fill="#F299C1" width="17.008" height="34.016"/>
		<rect x="85.04" y="221.102" fill="#F299C1" width="17.008" height="17.008"/>
		<rect x="68.032" y="238.11" fill="#F299C1" width="17.008" height="68.032"/>
		<rect x="85.04" y="306.142" fill="#F299C1" width="17.008" height="17.008"/>
		<rect x="102.047" y="323.149" fill="#F299C1" width="17.008" height="34.016"/>
	</g>
</g>
</svg>
