<?xml version="1.0" encoding="utf-8"?>
<!DOCTYPE svg PUBLIC "-//W3C//DTD SVG 1.1//EN" "http://www.w3.org/Graphics/SVG/1.1/DTD/svg11.dtd">
<svg version="1.1" xmlns="http://www.w3.org/2000/svg" xmlns:xlink="http://www.w3.org/1999/xlink" x="0px" y="0px"
	 width="320px" height="320px" viewBox="0 0 22 32" enable-background="new 0 0 22 32"
	 xml:space="preserve">
<g id="Red">
	<polygon fill="#F00" points="10,0 12,0 12,1 13,1 13,3 14,3 14,4 15,4 15,6 16,6 16,7
		17,7 17,9 18,9 18,10 19,10 19,12 20,12 20,13 21,13 21,15 22,15 22,17 21,17
		21,19 20,19 20,20 19,20 19,22 18,22 18,23 17,23 17,25 16,25 16,26 15,26 15,28 14,28
		14,29 13,29 13,31 12,31 12,32 10,32 10,31 9,31 9,29 8,29 8,28 7,28 7,26
		6,26 6,25 5,25 5,23 4,23 4,22 3,22 3,20 2,20 2,19 1,19 1,17 0,17 0,15
		1,15 1,13 2,13 2,12 3,12 3,10 4,10 4,9 5,9 5,7 6,7 6,6 7,6 7,4 8,4 8,3 9,3 9,1 10,1" />
</g> 
<g id="Border">
	<g>
		<rect x="10" fill="#000" width="2" height="1"/>
		<rect x="9" y="1" fill="#000" width="1" height="2"/>
		<rect x="12" y="1" fill="#000" width="1" height="2"/>
		<rect x="8" y="3" fill="#000" width="1" height="1"/>
		<rect x="13" y="3" fill="#000" width="1" height="1"/>
		<rect x="7" y="4" fill="#000" width="1" height="2"/>
		<rect x="14" y="4" fill="#000" width="1" height="2"/>
		<rect x="6" y="6" fill="#000" width="1" height="1"/>
		<rect x="15" y="6" fill="#000" width="1" height="1"/>
		<rect x="5" y="7" fill="#000" width="1" height="2"/>
		<rect x="16" y="7" fill="#000" width="1" height="2"/>
		<rect x="4" y="9" fill="#000" width="1" height="1"/>
		<rect x="17" y="9" fill="#000" width="1" height="1"/>
		<rect x="3" y="10" fill="#000" width="1" height="2"/>
		<rect x="18" y="10" fill="#000" width="1" height="2"/>
		<rect x="2" y="12" fill="#000" width="1" height="1"/>
		<rect x="19" y="12" fill="#000" width="1" height="1"/>
		<rect x="1" y="13" fill="#000" width="1" height="2"/>
		<rect x="20" y="13" fill="#000" width="1" height="2"/>
		<rect y="15" fill="#000" width="1" height="2"/>
		<rect x="21" y="15" fill="#000" width="1" height="2"/>
		<rect x="1" y="17" fill="#000" width="1" height="2"/>
		<rect x="20" y="17" fill="#000" width="1" height="2"/>
		<rect x="2" y="19" fill="#000" width="1" height="1"/>
		<rect x="19" y="19" fill="#000" width="1" height="1"/>
		<rect x="3" y="20" fill="#000" width="1" height="2"/>
		<rect x="18" y="20" fill="#000" width="1" height="2"/>
		<rect x="4" y="22" fill="#000" width="1" height="1"/>
		<rect x="17" y="22" fill="#000" width="1" height="1"/>
		<rect x="5" y="23" fill="#000" width="1" height="2"/>
		<rect x="16" y="23" fill="#000" width="1" height="2"/>
		<rect x="6" y="25" fill="#000" width="1" height="1"/>
		<rect x="15" y="25" fill="#000" width="1" height="1"/>
		<rect x="7" y="26" fill="#000" width="1" height="2"/>
		<rect x="14" y="26" fill="#000" width="1" height="2"/>
		<rect x="8" y="28" fill="#000" width="1" height="1"/>
		<rect x="13" y="28" fill="#000" width="1" height="1"/>
		<rect x="9" y="29" fill="#000" width="1" height="2"/>
		<rect x="12" y="29" fill="#000" width="1" height="2"/>
		<rect x="10" y="31" fill="#000" width="2" height="1"/>
	</g>
</g> 
<g id="Shadow">
	<g>
		<rect x="10" y="1" fill="#990000" width="2" height="1"/>
		<rect x="10" y="30" fill="#990000" width="2" height="1"/>
		<rect x="12" y="3" fill="#990000" width="1" height="1"/>
		<rect x="12" y="28" fill="#990000" width="1" height="1"/>
		<rect x="9" y="3" fill="#990000" width="1" height="1"/>
		<rect x="9" y="28" fill="#990000" width="1" height="1"/>
		<rect x="8" y="4" fill="#990000" width="1" height="2"/>
		<rect x="8" y="26" fill="#990000" width="1" height="2"/>
		<rect x="7" y="6" fill="#990000" width="1" height="1"/>
		<rect x="7" y="25" fill="#990000" width="1" height="1"/>
		<rect x="15" y="7" fill="#990000" width="1" height="2"/>
		<rect x="15" y="23" fill="#990000" width="1" height="2"/>
		<rect x="16" y="9" fill="#990000" width="1" height="1"/>
		<rect x="16" y="22" fill="#990000" width="1" height="1"/>
		<rect x="5" y="9" fill="#990000" width="1" height="1"/>
		<rect x="5" y="22" fill="#990000" width="1" height="1"/>
		<rect x="4" y="10" fill="#990000" width="1" height="2"/>
		<rect x="4" y="20" fill="#990000" width="1" height="2"/>
		<rect x="17" y="10" fill="#990000" width="1" height="2"/>
		<rect x="17" y="20" fill="#990000" width="1" height="2"/>
		<rect x="18" y="12" fill="#990000" width="1" height="1"/>
		<rect x="18" y="19" fill="#990000" width="1" height="1"/>
		<rect x="3" y="12" fill="#990000" width="1" height="1"/>
		<rect x="3" y="19" fill="#990000" width="1" height="1"/>
		<rect x="2" y="13" fill="#990000" width="1" height="2"/>
		<rect x="2" y="17" fill="#990000" width="1" height="2"/>
		<rect x="19" y="13" fill="#990000" width="1" height="2"/>
		<rect x="19" y="17" fill="#990000" width="1" height="2"/>
		<rect x="20" y="15" fill="#990000" width="1" height="2"/>
		<rect x="1" y="15" fill="#990000" width="1" height="2"/>
		<rect x="6" y="7" fill="#990000" width="1" height="2"/>
		<rect x="6" y="23" fill="#990000" width="1" height="2"/>
		<rect x="14" y="6" fill="#990000" width="1" height="1"/>
		<rect x="14" y="25" fill="#990000" width="1" height="1"/>
		<rect x="13" y="4" fill="#990000" width="1" height="2"/>
		<rect x="13" y="26" fill="#990000" width="1" height="2"/>
	</g>
</g>
<g id="Highlight">
	<g>
		<rect x="11" y="5" fill="#F299C1" width="1" height="1"/>
		<rect x="10" y="5" fill="#F299C1" width="1" height="2"/>
		<rect x="9" y="7" fill="#F299C1" width="1" height="1"/>
		<rect x="8" y="8" fill="#F299C1" width="1" height="2"/>
		<rect x="7" y="10" fill="#F299C1" width="1" height="1"/>
		<rect x="6" y="11" fill="#F299C1" width="1" height="2"/>
		<rect x="5" y="13" fill="#F299C1" width="1" height="1"/>
		<rect x="4" y="14" fill="#F299C1" width="1" height="4"/>
		<rect x="5" y="18" fill="#F299C1" width="1" height="1"/>
		<rect x="6" y="19" fill="#F299C1" width="1" height="2"/>
	</g>
</g>
</svg>
