<?xml version="1.0" encoding="utf-8"?>
<!DOCTYPE svg PUBLIC "-//W3C//DTD SVG 1.1//EN" "http://www.w3.org/Graphics/SVG/1.1/DTD/svg11.dtd">
<svg version="1.1" xmlns="http://www.w3.org/2000/svg" xmlns:xlink="http://www.w3.org/1999/xlink" x="0px" y="0px"
	 width="320px" height="320px" viewBox="0 0 320 320" enable-background="new 0 0 320 320"
	 xml:space="preserve">
<g id="Red">
	<polygon fill="#F00" points="60,10 120,10 120,20 140,20 140,30 150,30 150,40
		170,40 170,30 180,30 180,20 200,20 200,10 260,10 260,20 280,20 280,30 300,30 300,60 310,60
		310,140 300,140 300,160 290,160 290,180 280,180 280,190 270,190 270,200 260,200 260,210 250,210
		250,220 240,220 240,230 230,230 230,240 220,240 220,250 210,250 210,260 210,260 200,260 200,270
		190,270 190,280 180,280 180,290 170,290 170,300 150,300 150,290 140,290 140,280 130,280 130,270
		120,270 120,260 110,260 110,250 100,250 100,240 90,240 90,230 80,230 80,220 70,220 70,210
		60,210 60,200 50,200 50,190 40,190 40,180 30,180 30,160 20,160 20,140 10,140 10,60 20,60
		20,40 30,40 30,30 40,30 40,20 60,20" />
</g> 
<g id="Border">
	<g>
		<rect x="150" y="300" fill="#000" width="10" height="10"/>
		<rect x="140" y="290" fill="#000" width="10" height="10"/>
		<rect x="130" y="280" fill="#000" width="10" height="10"/>
		<rect x="120" y="270" fill="#000" width="10" height="10"/>
		<rect x="110" y="260" fill="#000" width="10" height="10"/>
		<rect x="100" y="250" fill="#000" width="10" height="10"/>
		<rect x="90" y="240" fill="#000" width="10" height="10"/>
		<rect x="80" y="230" fill="#000" width="10" height="10"/>
		<rect x="70" y="220" fill="#000" width="10" height="10"/>
		<rect x="60" y="210" fill="#000" width="10" height="10"/>
		<rect x="50" y="200" fill="#000" width="10" height="10"/>
		<rect x="40" y="190" fill="#000" width="10" height="10"/>
		<rect x="30" y="180" fill="#000" width="10" height="10"/>
		<rect x="20" y="160" fill="#000" width="10" height="20"/>
		<rect x="10" y="140" fill="#000" width="10" height="20"/>
		<rect x="0" y="60" fill="#000" width="10" height="80"/>
		<rect x="10" y="40" fill="#000" width="10" height="20"/>
		<rect x="20" y="30" fill="#000" width="10" height="10"/>
		<rect x="30" y="20" fill="#000" width="10" height="10"/>
		<rect x="40" y="10" fill="#000" width="20" height="10"/>
		<rect x="60" y="0" fill="#000" width="60" height="10"/>
		<rect x="120" y="10" fill="#000" width="20" height="10"/>
		<rect x="140" y="20" fill="#000" width="10" height="10"/>
		<rect x="150" y="30" fill="#000" width="20" height="10"/>
		<rect x="170" y="20" fill="#000" width="10" height="10"/>
		<rect x="180" y="10" fill="#000" width="20" height="10"/>
		<rect x="200" y="0" fill="#000" width="60" height="10"/>
		<rect x="260" y="10" fill="#000" width="20" height="10"/>
		<rect x="280" y="20" fill="#000" width="10" height="10"/>
		<rect x="290" y="30" fill="#000" width="10" height="10"/>
		<rect x="300" y="40" fill="#000" width="10" height="20"/>
		<rect x="310" y="60" fill="#000" width="10" height="80"/>
		<rect x="300" y="140" fill="#000" width="10" height="20"/>
		<rect x="290" y="160" fill="#000" width="10" height="20"/>
		<rect x="280" y="180" fill="#000" width="10" height="10"/>
		<rect x="270" y="190" fill="#000" width="10" height="10"/>
		<rect x="260" y="200" fill="#000" width="10" height="10"/>
		<rect x="250" y="210" fill="#000" width="10" height="10"/>
		<rect x="240" y="220" fill="#000" width="10" height="10"/>
		<rect x="230" y="230" fill="#000" width="10" height="10"/>
		<rect x="220" y="240" fill="#000" width="10" height="10"/>
		<rect x="210" y="250" fill="#000" width="10" height="10"/>
		<rect x="200" y="260" fill="#000" width="10" height="10"/>
		<rect x="190" y="270" fill="#000" width="10" height="10"/>
		<rect x="180" y="280" fill="#000" width="10" height="10"/>
		<rect x="170" y="290" fill="#000" width="10" height="10"/>
		<rect x="160" y="300" fill="#000" width="10" height="10"/>
	</g>
</g> 
<g id="Shadow">
	<g>
		<rect x="60" y="10" fill="#990000" width="60" height="10"/>
		<rect x="200" y="10" fill="#990000" width="60" height="10"/>
		<rect x="40" y="20" fill="#990000" width="20" height="10"/>
		<rect x="120" y="20" fill="#990000" width="20" height="10"/>
		<rect x="180" y="20" fill="#990000" width="20" height="10"/>
		<rect x="260" y="20" fill="#990000" width="20" height="10"/>
		<rect x="30" y="30" fill="#990000" width="10" height="10"/>
		<rect x="140" y="30" fill="#990000" width="10" height="10"/>
		<rect x="170" y="30" fill="#990000" width="10" height="10"/>
		<rect x="280" y="30" fill="#990000" width="10" height="10"/>
		<rect x="20" y="40" fill="#990000" width="10" height="20"/>
		<rect x="150" y="40" fill="#990000" width="20" height="10"/>
		<rect x="290" y="40" fill="#990000" width="10" height="20"/>
		<rect x="10" y="60" fill="#990000" width="10" height="80"/>
		<rect x="300" y="60" fill="#990000" width="10" height="80"/>
		<rect x="20" y="140" fill="#990000" width="10" height="20"/>
		<rect x="290" y="140" fill="#990000" width="10" height="20"/>
		<rect x="30" y="160" fill="#990000" width="10" height="20"/>
		<rect x="280" y="160" fill="#990000" width="10" height="20"/>
		<rect x="40" y="180" fill="#990000" width="10" height="10"/>
		<rect x="270" y="180" fill="#990000" width="10" height="10"/>
		<rect x="50" y="190" fill="#990000" width="10" height="10"/>
		<rect x="260" y="190" fill="#990000" width="10" height="10"/>
		<rect x="60" y="200" fill="#990000" width="10" height="10"/>
		<rect x="250" y="200" fill="#990000" width="10" height="10"/>
		<rect x="70" y="210" fill="#990000" width="10" height="10"/>
		<rect x="240" y="210" fill="#990000" width="10" height="10"/>
		<rect x="80" y="220" fill="#990000" width="10" height="10"/>
		<rect x="230" y="220" fill="#990000" width="10" height="10"/>
		<rect x="90" y="230" fill="#990000" width="10" height="10"/>
		<rect x="220" y="230" fill="#990000" width="10" height="10"/>
		<rect x="100" y="240" fill="#990000" width="10" height="10"/>
		<rect x="210" y="240" fill="#990000" width="10" height="10"/>
		<rect x="110" y="250" fill="#990000" width="10" height="10"/>
		<rect x="200" y="250" fill="#990000" width="10" height="10"/>
		<rect x="120" y="260" fill="#990000" width="10" height="10"/>
		<rect x="190" y="260" fill="#990000" width="10" height="10"/>
		<rect x="130" y="270" fill="#990000" width="10" height="10"/>
		<rect x="180" y="270" fill="#990000" width="10" height="10"/>
		<rect x="140" y="280" fill="#990000" width="10" height="10"/>
		<rect x="170" y="280" fill="#990000" width="10" height="10"/>
		<rect x="150" y="290" fill="#990000" width="20" height="10"/>
	</g>
</g>
<g id="Highlight">
	<g>
		<rect x="70" y="30" fill="#F299C1" width="30" height="10"/>
		<rect x="60" y="40" fill="#F299C1" width="10" height="10"/>
		<rect x="50" y="50" fill="#F299C1" width="10" height="20"/>
		<rect x="40" y="70" fill="#F299C1" width="10" height="30"/>
	</g>
</g>
</svg>
