<?xml version="1.0" encoding="utf-8"?>
<!DOCTYPE svg PUBLIC "-//W3C//DTD SVG 1.1//EN" "http://www.w3.org/Graphics/SVG/1.1/DTD/svg11.dtd">
<svg version="1.1" xmlns="http://www.w3.org/2000/svg" xmlns:xlink="http://www.w3.org/1999/xlink" x="0px" y="0px"
	 width="320px" height="320px" viewBox="0 0 32 32" enable-background="new 0 0 32 32"
	 xml:space="preserve">
<g id="Red">
	<polygon fill="#F00" points="6,1 12,1 12,2 14,2 14,3 15,3 15,4
		17,4 17,3 18,3 18,2 20,2 20,1 26,1 26,2 28,2 28,3 30,3 30,6 31,6
		31,14 30,14 30,16 29,16 29,18 28,18 28,19 27,19 27,20 26,20 26,21 25,21
		25,22 24,22 24,23 23,23 23,24 22,24 22,25 21,25 21,26 21,26 20,26 20,27
		19,27 19,28 18,28 18,29 17,29 17,30 15,30 15,29 14,29 14,28 13,28 13,27
		12,27 12,26 11,26 11,25 10,25 10,24 9,24 9,23 8,23 8,22 7,22 7,21
		6,21 6,20 5,20 5,19 4,19 4,18 3,18 3,16 2,16 2,14 1,14 1,6 2,6
		2,4 3,4 3,3 4,3 4,2 6,2" />
</g> 
<g id="Border">
	<g>
		<rect x="15" y="30" fill="#000" width="1" height="1"/>
		<rect x="14" y="29" fill="#000" width="1" height="1"/>
		<rect x="13" y="28" fill="#000" width="1" height="1"/>
		<rect x="12" y="27" fill="#000" width="1" height="1"/>
		<rect x="11" y="26" fill="#000" width="1" height="1"/>
		<rect x="10" y="25" fill="#000" width="1" height="1"/>
		<rect x="9" y="24" fill="#000" width="1" height="1"/>
		<rect x="8" y="23" fill="#000" width="1" height="1"/>
		<rect x="7" y="22" fill="#000" width="1" height="1"/>
		<rect x="6" y="21" fill="#000" width="1" height="1"/>
		<rect x="5" y="20" fill="#000" width="1" height="1"/>
		<rect x="4" y="19" fill="#000" width="1" height="1"/>
		<rect x="3" y="18" fill="#000" width="1" height="1"/>
		<rect x="2" y="16" fill="#000" width="1" height="2"/>
		<rect x="1" y="14" fill="#000" width="1" height="2"/>
		<rect x="0" y="6" fill="#000" width="1" height="8"/>
		<rect x="1" y="4" fill="#000" width="1" height="2"/>
		<rect x="2" y="3" fill="#000" width="1" height="1"/>
		<rect x="3" y="2" fill="#000" width="1" height="1"/>
		<rect x="4" y="1" fill="#000" width="2" height="1"/>
		<rect x="6" y="0" fill="#000" width="6" height="1"/>
		<rect x="12" y="1" fill="#000" width="2" height="1"/>
		<rect x="14" y="2" fill="#000" width="1" height="1"/>
		<rect x="15" y="3" fill="#000" width="2" height="1"/>
		<rect x="17" y="2" fill="#000" width="1" height="1"/>
		<rect x="18" y="1" fill="#000" width="2" height="1"/>
		<rect x="20" y="0" fill="#000" width="6" height="1"/>
		<rect x="26" y="1" fill="#000" width="2" height="1"/>
		<rect x="28" y="2" fill="#000" width="1" height="1"/>
		<rect x="29" y="3" fill="#000" width="1" height="1"/>
		<rect x="30" y="4" fill="#000" width="1" height="2"/>
		<rect x="31" y="6" fill="#000" width="1" height="8"/>
		<rect x="30" y="14" fill="#000" width="1" height="2"/>
		<rect x="29" y="16" fill="#000" width="1" height="2"/>
		<rect x="28" y="18" fill="#000" width="1" height="1"/>
		<rect x="27" y="19" fill="#000" width="1" height="1"/>
		<rect x="26" y="20" fill="#000" width="1" height="1"/>
		<rect x="25" y="21" fill="#000" width="1" height="1"/>
		<rect x="24" y="22" fill="#000" width="1" height="1"/>
		<rect x="23" y="23" fill="#000" width="1" height="1"/>
		<rect x="22" y="24" fill="#000" width="1" height="1"/>
		<rect x="21" y="25" fill="#000" width="1" height="1"/>
		<rect x="20" y="26" fill="#000" width="1" height="1"/>
		<rect x="19" y="27" fill="#000" width="1" height="1"/>
		<rect x="18" y="28" fill="#000" width="1" height="1"/>
		<rect x="17" y="29" fill="#000" width="1" height="1"/>
		<rect x="16" y="30" fill="#000" width="1" height="1"/>
	</g>
</g> 
<g id="Shadow">
	<g>
		<rect x="6" y="1" fill="#990000" width="6" height="1"/>
		<rect x="20" y="1" fill="#990000" width="6" height="1"/>
		<rect x="4" y="2" fill="#990000" width="2" height="1"/>
		<rect x="12" y="2" fill="#990000" width="2" height="1"/>
		<rect x="18" y="2" fill="#990000" width="2" height="1"/>
		<rect x="26" y="2" fill="#990000" width="2" height="1"/>
		<rect x="3" y="3" fill="#990000" width="1" height="1"/>
		<rect x="14" y="3" fill="#990000" width="1" height="1"/>
		<rect x="17" y="3" fill="#990000" width="1" height="1"/>
		<rect x="28" y="3" fill="#990000" width="1" height="1"/>
		<rect x="2" y="4" fill="#990000" width="1" height="2"/>
		<rect x="15" y="4" fill="#990000" width="2" height="1"/>
		<rect x="29" y="4" fill="#990000" width="1" height="2"/>
		<rect x="1" y="6" fill="#990000" width="1" height="8"/>
		<rect x="30" y="6" fill="#990000" width="1" height="8"/>
		<rect x="2" y="14" fill="#990000" width="1" height="2"/>
		<rect x="29" y="14" fill="#990000" width="1" height="2"/>
		<rect x="3" y="16" fill="#990000" width="1" height="2"/>
		<rect x="28" y="16" fill="#990000" width="1" height="2"/>
		<rect x="4" y="18" fill="#990000" width="1" height="1"/>
		<rect x="27" y="18" fill="#990000" width="1" height="1"/>
		<rect x="5" y="19" fill="#990000" width="1" height="1"/>
		<rect x="26" y="19" fill="#990000" width="1" height="1"/>
		<rect x="6" y="20" fill="#990000" width="1" height="1"/>
		<rect x="25" y="20" fill="#990000" width="1" height="1"/>
		<rect x="7" y="21" fill="#990000" width="1" height="1"/>
		<rect x="24" y="21" fill="#990000" width="1" height="1"/>
		<rect x="8" y="22" fill="#990000" width="1" height="1"/>
		<rect x="23" y="22" fill="#990000" width="1" height="1"/>
		<rect x="9" y="23" fill="#990000" width="1" height="1"/>
		<rect x="22" y="23" fill="#990000" width="1" height="1"/>
		<rect x="10" y="24" fill="#990000" width="1" height="1"/>
		<rect x="21" y="24" fill="#990000" width="1" height="1"/>
		<rect x="11" y="25" fill="#990000" width="1" height="1"/>
		<rect x="20" y="25" fill="#990000" width="1" height="1"/>
		<rect x="12" y="26" fill="#990000" width="1" height="1"/>
		<rect x="19" y="26" fill="#990000" width="1" height="1"/>
		<rect x="13" y="27" fill="#990000" width="1" height="1"/>
		<rect x="18" y="27" fill="#990000" width="1" height="1"/>
		<rect x="14" y="28" fill="#990000" width="1" height="1"/>
		<rect x="17" y="28" fill="#990000" width="1" height="1"/>
		<rect x="15" y="29" fill="#990000" width="2" height="1"/>
	</g>
</g>
<g id="Highlight">
	<g>
		<rect x="7" y="3" fill="#F299C1" width="3" height="1"/>
		<rect x="6" y="4" fill="#F299C1" width="1" height="1"/>
		<rect x="5" y="5" fill="#F299C1" width="1" height="2"/>
		<rect x="4" y="7" fill="#F299C1" width="1" height="3"/>
	</g>
</g>
</svg>
